<svg
   xmlns:dc="http://purl.org/dc/elements/1.1/"
   xmlns:cc="http://creativecommons.org/ns#"
   xmlns:rdf="http://www.w3.org/1999/02/22-rdf-syntax-ns#"
   xmlns:svg="http://www.w3.org/2000/svg"
   xmlns="http://www.w3.org/2000/svg"
   id="svg30"
   version="1.1"
   viewBox="0 0  380 280">
  <metadata
     id="metadata36">
    <rdf:RDF>
      <cc:Work
         rdf:about="">
        <dc:format>image/svg+xml</dc:format>
        <dc:type
           rdf:resource="http://purl.org/dc/dcmitype/StillImage" />
      </cc:Work>
    </rdf:RDF>
  </metadata>
  <defs
     id="defs34" />
  <svg
     height="100%"
     width="100%"
     id="svg2"
     version="1.1"
     viewBox="0 0 380 280" />
  <g
     id="g28"
     transform="translate(-22)">
    <g
       id="text4"
       style="font-size:70px;font-family:IDPinocchio;fill:#83c75d;fill-opacity:1"
       aria-label="林">
      <path
         id="path38"
         style="font-size:70px;font-family:IDPinocchio;fill:#83c75d;fill-opacity:1"
         d="m 152.03812,112.46938 h 8.12 q 0.49,0 0.84,0.35 0.35,0.35 0.35,0.91 v 4.34 q 0,0.55999 -0.35,0.91 -0.35,0.28 -0.91,0.35 l -7.28,0.34999 q 0,0.14001 0.07,0.21001 -0.07,0.07 0,0.21 0,0.07 0.28,0.76999 0.84,2.66001 2.45,5.95 1.61,3.29 3.5,6.65001 1.96,3.28999 3.99,6.36999 2.03,3.08 3.78,5.18 0.14,0.21 0.28,0.35 0.14,0.14 0.21,0.21 0.07,0.14001 0.14,0.14001 0.35,0.34999 0.28,0.83999 -0.07,0.49 -0.49,0.84 l -5.67,3.99 q -0.42,0.35 -0.91,0.28 -0.49,-0.14 -0.77,-0.63 -0.07,-0.07 -0.21,-0.28 -0.14,-0.14 -0.28,-0.35 -0.14,-0.21 -0.28,-0.56 -1.89,-3.15 -3.64,-7 -1.75,-3.92 -3.22,-8.05 l 0.35,23.73 q 0,1.33 -1.33,1.47 l -7.42,0.21 q -0.56,0 -0.98,-0.42 -0.42,-0.35 -0.35,-0.91 l 0.63,-24.36 q -1.68,4.20001 -3.64,8.05 -1.89,3.78 -3.78,6.93 -0.35,0.63 -0.91,0.7 -0.49,0 -0.98,-0.35 l -5.25,-3.78 q -0.49,-0.34999 -0.63,-0.91 -0.14,-0.63 0.28,-1.05 4.62,-5.18 8.26,-11.34 3.64,-6.22999 5.95,-12.59999 l -5.67,0.28 q -0.49,0 -0.84,-0.35 -0.35,-0.35 -0.35,-0.84 l -0.07,-5.53 q 0,-0.56 0.35,-0.91 0.35,-0.35 0.84,-0.28 h 6.93 l 0.28,-9.24001 q 0.07,-0.56 0.49,-0.97999 0.42,-0.42001 0.98,-0.42001 h 4.97 q 0.56,0 0.98,0.42001 0.42,0.41999 0.49,0.97999 z m -25.83,0.07 h 5.88 q 0.56,0 0.91,0.35 0.35,0.34999 0.35,0.90999 l -0.07,4.34001 q 0,0.56 -0.35,0.90999 -0.35,0.35 -0.91,0.35 l -5.74,0.35001 0.07,4.34 1.19,-0.77 q 0.49,-0.28 1.05,-0.14001 0.56,0.07 0.91,0.42 l 6.79,7.63 q 0.84,0.84 -0.14,1.61 l -5.04,3.78 q -0.42,0.35001 -0.91,0.28 -0.49,-0.14 -0.7,-0.63 l -3.01,-5.11 0.42,27.37 q 0,0.56 -0.42,0.98 -0.42,0.42 -0.98,0.49 l -7.35,0.21 q -1.4,0 -1.4,-1.33 l 0.63,-24.08 q -1.05,2.45 -2.24,4.76 -1.19,2.31 -2.59,4.62 -0.21,0.35 -0.35,0.56 -0.07,0.21 -0.21,0.35 -0.14,0.21 -0.21,0.35 -0.7,1.05 -1.82,0.35 l -5.25,-3.85 q -0.42,-0.35 -0.49,-0.84 -0.07,-0.49 0.28,-0.91 0.07,0 0.14,-0.14 0.07,-0.07 0.14,-0.21 0.14,-0.14 0.35,-0.35 1.61,-1.95999 3.22,-4.26999 1.68,-2.31001 3.15,-4.76001 1.54,-2.52 2.87,-5.10999 1.33,-2.59 2.31,-5.11001 l -5.74,0.28 q -0.56,0 -0.91,-0.28 -0.35,-0.34999 -0.35,-0.90999 l -0.07,-5.53001 q 0,-0.48999 0.35,-0.84 0.35,-0.34999 0.91,-0.34999 h 7.07 l 0.28,-9.31001 q 0,-0.56 0.42,-0.97999 0.42,-0.42001 0.98,-0.42001 h 5.04 q 0.56,0 0.98,0.42001 0.42,0.41999 0.42,0.97999 z" />
    </g>
    <g
       id="text6"
       style="font-size:40px;font-family:IDPinocchio;fill:#83c75d;fill-opacity:1"
       aria-label="之">
      <path
         id="path41"
         style="font-size:40px;font-family:IDPinocchio;fill:#83c75d;fill-opacity:1"
         d="m 204.69812,116.86312 9.36,-0.08 q 0.32,0 0.56,0.24 0.28,0.20001 0.32001,0.52001 l 0.23999,4.28 q -0.32,0.39999 -0.64,0.8 -0.32,0.39999 -0.68,0.84 -1.28,1.52 -2.84,3.11999 -1.51999,1.56 -3.16,3.16 -1.6,1.56 -3.28,3.08 -1.63999,1.48 -3.2,2.8 2.2,0.32 4.4,0.64 2.24,0.32 4.32,0.6 2.12,0.28 4,0.52 1.92,0.2 3.48,0.32 0.56,0.08 0.76,0.44 0.2,0.32 0.04,0.72 l -2.64,5.24 q -0.16,0.32 -0.67999,0.4 -0.48001,0.08 -1.00001,-0.04 -2.28,-0.56 -5,-1.36 -2.68,-0.8 -5.36,-1.68 -2.68,-0.84 -5.12,-1.68 -2.44,-0.84 -4.24,-1.48 -0.28,-0.08 -0.44,-0.12 -0.16,-0.08 -0.24,-0.12 -0.12,-0.04 -0.2,-0.04 -0.32,-0.08 -0.56,0.08 -0.24,0.15999 -0.32,0.47999 l -0.48,2.44 q -0.08,0.32 -0.32,0.44 -0.2,0.16 -0.52,0 l -4.16,-1.92 q -0.32,-0.12 -0.4,-0.4 -0.08,-0.32 0.12,-0.6 l 3.44,-4.76 1.88,0.36 0.64,0.12 q 0.32,-0.2 0.56,-0.4 0.28,-0.2 0.60001,-0.4 1.83999,-1.24 3.79999,-2.68 1.96,-1.44 3.84,-2.88 1.88,-1.47999 3.6,-2.87999 1.76001,-1.40001 3.16,-2.64 l 1.52,-1.36 -18.32,1.51999 q -0.32,0.04 -0.56,-0.15999 -0.24,-0.24 -0.28,-0.56001 l -0.2,-4 q -0.04,-0.31999 0.16,-0.55999 0.24,-0.24 0.56,-0.24 l 10.28001,-0.08 -4.20001,-3.88001 q -0.24,-0.24 -0.28,-0.55999 0,-0.36 0.2,-0.60001 l 1.88,-2.4 q 0.2,-0.24 0.56,-0.32 0.36,-0.08 0.64,0.12001 l 6.28,3.51999 q 0.28,0.20001 0.36001,0.52 0.08,0.28 -0.12001,0.56 z" />
    </g>
    <g
       id="text8"
       style="font-size:40px;font-family:IDPinocchio;fill:#83c75d;fill-opacity:1"
       aria-label="风">
      <path
         id="path44"
         style="font-size:40px;font-family:IDPinocchio;fill:#83c75d;fill-opacity:1"
         d="m 267.67313,110.66313 q -0.04,0.19999 -0.04,0.4 v 0.95999 q -0.04,4.04001 0.16001,7.84 0.2,3.76001 0.71999,7.08 0.52,3.28 1.4,6 0.92,2.68 2.32,4.56 0.12,0.2 0.24,0.36 0.12,0.16 0.20001,0.24 0.12,0.16 0.2,0.2 0.24,0.24 0.19999,0.56 -0.04,0.32 -0.32,0.52 l -3.8,2.88 q -0.27999,0.2 -0.6,0.16 -0.28,-0.04 -0.47999,-0.35999 -0.04,-0.04 -0.12001,-0.16001 -0.08,-0.08 -0.16,-0.2 -0.08,-0.12 -0.15999,-0.32 -1.28001,-1.96 -2.12,-4.08 -0.84001,-2.16 -1.32,-5.12 -0.48001,-3 -0.60001,-7.07999 -0.08,-4.12 0.12,-10.04 v -0.68 q 0,-0.32 -0.24,-0.52001 -0.24,-0.23999 -0.56,-0.23999 l -13.36,0.87999 q -0.32,0.04 -0.56,0.28 -0.24,0.24 -0.24,0.56001 v 1.04 q -0.08,3.63999 -0.12,7 -0.04,3.32 -0.32,6.31999 -0.28,3 -0.88,5.68 -0.56,2.64 -1.72,4.84 -0.12,0.24 -0.24,0.44 -0.08,0.2 -0.16,0.36 -0.12,0.16 -0.16,0.32 -0.16,0.32 -0.48,0.44 -0.32,0.12 -0.64,0 l -3.68,-1.71999 q -0.32,-0.12001 -0.44,-0.40001 -0.08,-0.28 0.08,-0.59999 0,-0.04 0.04,-0.08 0.04,-0.04 0.08,-0.08 0.08,-0.08 0.16,-0.24 1.08,-2 1.84,-4.56 0.76,-2.6 1.24,-5.84 0.48,-3.24 0.72,-7.12 0.24,-3.91999 0.28,-8.56 v -1.59999 q 0,-0.36 0.24,-0.6 0.24,-0.24001 0.56,-0.24001 l 21.92001,-0.28 q 0.31999,0 0.56,0.24001 0.24,0.24 0.24,0.56 z m -7.12,26.15999 q -0.28001,0.2 -0.60001,0.16 -0.32,-0.04 -0.51999,-0.32 l -3.40001,-5.16 q -0.84,1.24 -1.76,2.4 -0.92,1.16001 -1.92,2.32 -0.16,0.2 -0.28,0.32 -0.12,0.12 -0.19999,0.2 -0.12001,0.12 -0.16001,0.2 -0.24,0.24 -0.56,0.24 -0.32,0 -0.56,-0.24 l -2.6,-2.04 q -0.24,-0.2 -0.24,-0.52 0,-0.31999 0.24,-0.56 0.08,-0.04 0.2,-0.2 0.08,-0.08 0.2,-0.24 0.16,-0.16 0.32,-0.36 1.16001,-1.44 2.28,-2.92 1.12,-1.48 2.16,-3.03999 l -3.88,-5.96 q -0.2,-0.28 -0.16,-0.60001 0.04,-0.31999 0.28,-0.56 l 2,-1.39999 q 0.28,-0.2 0.6,-0.16 0.32001,0 0.52,0.27999 l 3.24,4.12 q 0.68001,-1.15999 1.24001,-2.35999 0.56,-1.20001 1.12,-2.48001 0.08,-0.16 0.08,-0.23999 0.04,-0.12001 0.08,-0.20001 0.04,-0.08 0.04,-0.11999 0.08,-0.32 0.36,-0.44 0.32,-0.12 0.64,0 l 2.75999,0.88 q 0.32,0.16 0.44,0.47999 0.16001,0.28 0.04,0.60001 0,0.08 -0.04,0.2 -0.04,0.08 -0.08,0.19999 0,0.12001 -0.08,0.32001 -0.56,1.72 -1.44,3.56 -0.84,1.8 -1.91999,3.72 l 5,6.23999 q 0.19999,0.24 0.15999,0.56 0,0.32 -0.27999,0.52 z" />
    </g>
    <svg
       id="svg26"
       version="1.1"
       height="83"
       width="184.82185"
       y="97.453125"
       x="132.54219">
      <svg
         height="100%"
         width="100%"
         id="svg24"
         version="1.1"
         viewBox="0 0 185 83.08">
        <g
           style="fill-rule:evenodd"
           id="g16">
          <path
             style="fill:#6f8ed9"
             id="path10"
             d="M 0,69.48 Q 41.1,84.31 88.93,77.94 129.58,72 159.29,49.2 132.89,75.39 88.93,81.36 40.51,87.92 0,69.48 Z" />
          <path
             style="fill:#6f8ed9"
             id="path12"
             d="m 154.5,49 c 0,0 0.07,-9.53 2.28,-13.1 1.53,-2.46 5.22,-3.25 5.22,-3.25 0,0 -4.83,-0.85 -6.17,-4.31 A 27.17,27.17 0 0 1 154.5,20 a 27.17,27.17 0 0 1 -1.33,8.34 c -1.34,3.46 -6.17,4.31 -6.17,4.31 0,0 3.69,0.79 5.22,3.25 2.21,3.57 2.28,13.1 2.28,13.1" />
          <path
             style="fill:#7e99d6"
             id="path14"
             d="m 171.5,37 c 0,0 0.11,-12.16 3.8,-16.71 2.55,-3.14 8.7,-4.15 8.7,-4.15 0,0 -8,-1.09 -10.29,-5.5 C 171.42,6.23 171.5,0 171.5,0 c 0,0 0,6.23 -2.21,10.64 -2.21,4.41 -10.29,5.5 -10.29,5.5 0,0 6.15,1 8.7,4.15 3.69,4.55 3.8,16.71 3.8,16.71" />
        </g>
        <path
           style="fill:none"
           id="path18"
           d="m 159,0 h 26 v 37 h -26 z" />
        <path
           style="fill:#6f8ed9;fill-rule:evenodd"
           id="path20"
           d="m 169.5,60 c 0,0 0.05,-5.59 1.67,-7.68 1.12,-1.44 3.83,-1.9 3.83,-1.9 0,0 -3.54,-0.51 -4.53,-2.53 a 13,13 0 0 1 -1,-4.89 13,13 0 0 1 -1,4.89 c -1,2 -4.53,2.53 -4.53,2.53 0,0 2.71,0.46 3.83,1.9 1.62,2.09 1.67,7.68 1.67,7.68" />
        <path
           style="fill:#7e99d6;fill-rule:evenodd"
           id="path22"
           d="m 150,13 c 0,0 0,-3.29 0.91,-4.52 A 3.81,3.81 0 0 1 153,7.36 c 0,0 -1.93,-0.29 -2.47,-1.48 A 8.2,8.2 0 0 1 150,3 8.2,8.2 0 0 1 149.47,5.88 C 148.93,7.07 147,7.36 147,7.36 a 3.81,3.81 0 0 1 2.09,1.12 C 150,9.71 150,13 150,13" />
      </svg>
    </svg>
  </g>
</svg>
